<?xml version="1.0" standalone="no"?>
<!DOCTYPE svg PUBLIC "-//W3C//DTD SVG 20010904//EN"
 "http://www.w3.org/TR/2001/REC-SVG-20010904/DTD/svg10.dtd">
<svg version="1.0" xmlns="http://www.w3.org/2000/svg"
 width="500.000000pt" height="500.000000pt" viewBox="0 0 500.000000 500.000000"
 preserveAspectRatio="xMidYMid meet">
<metadata>
Created by potrace 1.14, written by Peter Selinger 2001-2017
</metadata>
<g transform="translate(0.000000,500.000000) scale(0.100000,-0.100000)"
fill="#000000" stroke="none">
<path d="M2045 4809 c-4 -5 -10 -7 -14 -5 -4 3 -8 -1 -9 -9 -1 -8 -3 -22 -4
-30 -1 -8 -5 -12 -9 -9 -5 2 -6 11 -2 19 3 8 0 15 -6 15 -6 0 -11 -7 -11 -16
0 -8 -4 -13 -8 -10 -18 11 -62 14 -62 4 0 -6 -6 -6 -15 2 -10 9 -15 9 -15 1 0
-6 -5 -11 -11 -11 -5 0 -7 6 -3 13 6 9 4 9 -7 1 -8 -6 -22 -10 -31 -9 -14 3
-16 0 -8 -15 8 -16 6 -18 -19 -16 -18 1 -27 -2 -24 -9 2 -7 -3 -12 -11 -12 -8
0 -12 5 -9 11 4 6 0 5 -9 -2 -13 -10 -17 -10 -21 0 -4 10 -6 10 -6 1 -1 -7 -6
-13 -12 -13 -5 0 -8 4 -5 8 3 5 -1 9 -9 9 -8 0 -12 -4 -9 -9 5 -7 -20 -12 -56
-9 -10 0 -11 -1 -2 -5 18 -8 15 -27 -4 -20 -12 4 -15 2 -10 -9 3 -8 1 -15 -4
-15 -6 0 -10 4 -10 8 0 5 -7 9 -15 9 -8 0 -12 -4 -9 -8 2 -5 -9 -6 -26 -4 -22
3 -34 -2 -45 -18 -9 -12 -21 -22 -28 -22 -6 -1 -11 -7 -9 -14 1 -7 -2 -10 -8
-6 -6 3 -7 12 -4 18 5 8 3 8 -7 0 -17 -16 -33 -17 -23 -1 4 6 -4 4 -17 -5 -13
-10 -24 -23 -24 -30 0 -7 -15 -13 -35 -13 -19 -1 -39 -3 -45 -4 -5 -1 -13 -2
-17 -1 -3 0 -5 -11 -3 -25 1 -13 0 -22 -3 -19 -3 2 -12 -1 -20 -8 -11 -8 -14
-8 -9 0 4 6 2 15 -4 19 -7 4 -9 3 -6 -3 4 -6 0 -16 -8 -23 -13 -11 -14 -10 -9
5 5 13 4 16 -5 11 -7 -5 -11 -16 -8 -25 2 -10 -1 -18 -8 -18 -8 0 -11 7 -7 16
5 14 4 14 -10 1 -11 -10 -13 -19 -6 -27 7 -9 2 -10 -22 -3 -27 8 -30 7 -19 -6
10 -12 9 -13 -6 -8 -12 5 -16 4 -12 -3 4 -6 -1 -17 -11 -24 -15 -12 -16 -12
-4 2 10 14 10 18 -3 22 -8 4 -14 3 -14 -1 3 -20 -2 -33 -11 -27 -5 3 -10 1
-10 -4 0 -6 -5 -11 -11 -11 -5 0 -7 5 -4 11 4 6 -2 5 -13 -2 -12 -7 -18 -18
-15 -23 4 -6 8 -5 11 2 2 7 8 9 13 6 6 -3 2 -12 -8 -20 -22 -17 -37 -18 -27
-2 4 7 3 8 -4 4 -7 -4 -12 -14 -12 -22 0 -8 -5 -12 -10 -9 -6 4 -7 12 -3 18 4
7 -1 6 -11 -2 -9 -8 -15 -20 -12 -27 7 -17 -10 -28 -20 -13 -4 7 -15 2 -31
-15 -13 -15 -29 -23 -35 -20 -7 4 -8 2 -4 -5 4 -6 12 -9 17 -6 5 4 9 1 9 -5 0
-6 -6 -10 -12 -9 -27 3 -39 -1 -32 -13 5 -8 2 -9 -10 -5 -14 6 -17 3 -12 -9 4
-12 2 -15 -9 -10 -8 3 -14 0 -12 -7 1 -7 -8 -12 -20 -11 -19 0 -20 -2 -11 -19
7 -14 7 -17 -1 -13 -6 4 -11 2 -11 -4 0 -6 -5 -8 -10 -5 -6 3 -10 1 -10 -5 0
-6 -4 -9 -9 -6 -5 4 -20 2 -33 -4 -21 -9 -21 -10 -2 -7 11 1 21 -2 22 -8 0 -5
-6 -9 -15 -7 -9 2 -12 -1 -8 -8 4 -7 0 -10 -11 -8 -13 2 -18 -2 -16 -14 2 -12
-2 -16 -11 -12 -10 4 -14 -2 -12 -19 2 -15 -2 -24 -11 -24 -10 0 -11 4 -3 13
7 8 7 14 -1 19 -6 4 -9 1 -8 -7 2 -7 -3 -12 -11 -10 -11 2 -11 -2 2 -22 12
-18 14 -27 5 -32 -6 -4 -8 -3 -5 3 4 6 0 16 -8 23 -13 11 -14 10 -8 -6 6 -17
5 -18 -12 -4 -17 14 -18 14 -5 -10 10 -21 10 -23 -1 -12 -7 6 -18 12 -23 12
-6 0 -4 -5 4 -10 13 -8 12 -12 -4 -27 -19 -17 -19 -17 -5 2 13 18 13 19 -3 6
-10 -7 -18 -24 -18 -37 0 -16 -4 -22 -14 -18 -8 3 -17 0 -22 -7 -4 -7 -3 -10
4 -5 6 3 13 2 16 -3 4 -5 -5 -8 -19 -6 -18 2 -23 -1 -15 -9 6 -8 3 -18 -10
-29 -23 -20 -34 -22 -24 -5 4 7 3 8 -5 4 -6 -4 -9 -11 -6 -16 3 -4 -2 -13 -11
-20 -8 -7 -12 -20 -9 -28 5 -13 3 -13 -12 -1 -11 9 -14 10 -9 2 4 -7 2 -13 -3
-13 -6 0 -11 -4 -11 -10 0 -5 8 -7 18 -4 9 4 2 -3 -16 -15 -17 -11 -32 -26
-32 -31 0 -6 -4 -9 -8 -6 -5 3 -9 -1 -9 -9 0 -23 13 -18 25 10 6 14 17 25 23
25 7 0 4 -9 -7 -22 -37 -44 -52 -57 -60 -50 -5 4 -3 0 4 -9 14 -19 6 -30 -16
-22 -10 4 -13 2 -8 -5 4 -7 1 -15 -8 -18 -9 -3 -14 -10 -11 -14 3 -4 -2 -13
-10 -20 -12 -10 -13 -16 -3 -28 11 -13 10 -14 -10 -3 -22 12 -23 11 -12 -8 9
-17 8 -22 -4 -27 -13 -5 -13 -10 -4 -27 10 -19 9 -20 -4 -9 -13 11 -16 10 -14
-5 0 -11 -5 -17 -16 -17 -10 1 -16 -2 -13 -6 3 -5 -1 -11 -7 -13 -10 -4 -9 -6
1 -6 11 -1 11 -4 1 -16 -11 -13 -10 -15 6 -9 11 3 15 2 8 -3 -6 -4 -10 -16 -9
-25 2 -10 -2 -16 -8 -15 -7 1 -11 -6 -11 -15 1 -10 -4 -14 -12 -11 -7 2 -10
12 -7 21 4 14 3 15 -5 2 -7 -9 -7 -18 -1 -26 6 -8 5 -17 -5 -26 -10 -11 -11
-19 -4 -33 8 -13 8 -16 -2 -10 -9 6 -10 1 -5 -16 7 -23 7 -24 -9 -4 -15 20
-15 20 -11 -2 2 -13 -1 -26 -7 -29 -6 -4 -8 -2 -4 4 3 6 2 13 -2 16 -5 3 -7
-12 -5 -34 3 -26 1 -40 -7 -40 -6 0 -8 5 -4 12 5 7 3 8 -6 3 -10 -6 -10 -11 3
-20 18 -13 24 -30 7 -20 -6 3 -10 1 -10 -4 0 -6 5 -11 11 -11 5 0 7 -5 4 -10
-4 -6 -11 -8 -16 -5 -5 4 -6 -2 -2 -12 6 -15 4 -16 -8 -6 -13 10 -15 8 -13
-17 1 -17 -3 -30 -8 -30 -6 0 -7 -11 -4 -26 5 -18 3 -24 -5 -19 -8 6 -8 2 1
-14 9 -17 9 -26 -1 -37 -11 -13 -6 -19 15 -15 5 1 4 -4 -2 -12 -7 -8 -8 -18
-4 -22 4 -5 1 -5 -6 -1 -7 4 -10 11 -8 15 3 4 -1 8 -8 8 -7 0 -13 -6 -13 -13
0 -7 4 -11 8 -9 14 9 18 -24 4 -35 -8 -7 -12 -16 -9 -21 3 -5 0 -9 -6 -9 -7 0
-10 7 -7 15 4 8 2 17 -3 20 -5 3 -9 -160 -9 -399 1 -364 2 -404 17 -399 11 5
13 3 7 -7 -6 -9 -4 -11 5 -5 10 6 9 11 -5 22 -14 9 -15 13 -4 13 12 0 12 2 -1
10 -8 5 -10 10 -4 10 16 0 32 -22 28 -40 -1 -8 -5 -26 -8 -38 -4 -18 -2 -22 9
-18 8 3 17 0 21 -6 4 -6 3 -8 -3 -5 -6 4 -13 -5 -15 -23 -2 -16 -1 -27 4 -24
4 3 8 -2 8 -11 0 -10 -5 -14 -13 -10 -6 4 -4 0 6 -8 20 -17 22 -28 5 -23 -7 1
-10 1 -6 -1 4 -2 4 -12 1 -21 -6 -14 -4 -15 9 -4 12 10 18 10 27 -2 9 -11 9
-16 0 -22 -8 -4 -9 -3 -5 4 5 8 1 10 -9 5 -13 -4 -14 -8 -4 -13 7 -5 17 -6 24
-4 6 3 11 -6 11 -20 0 -14 -4 -22 -8 -20 -5 3 -5 10 -2 16 4 7 2 8 -4 4 -14
-8 -5 -33 14 -40 8 -3 11 -12 7 -22 -5 -13 -3 -15 7 -9 8 5 11 4 6 -3 -4 -6
-14 -9 -24 -6 -16 5 -16 5 0 -9 10 -8 15 -17 11 -20 -3 -4 1 -7 11 -7 9 0 15
4 11 9 -3 5 -1 12 4 16 6 3 8 -5 5 -19 -2 -14 0 -27 6 -31 6 -4 6 -15 0 -31
-7 -19 -7 -23 2 -18 8 5 9 2 5 -9 -3 -10 -2 -17 3 -17 6 0 10 5 10 12 0 6 2 9
5 6 3 -3 1 -18 -5 -34 -9 -27 -9 -28 5 -10 12 16 15 17 15 4 0 -9 3 -18 8 -21
4 -2 0 -2 -8 0 -11 2 -11 0 2 -10 14 -11 15 -16 5 -27 -9 -10 -9 -11 0 -6 7 4
13 3 13 -3 0 -5 -6 -12 -12 -15 -7 -3 0 -3 16 -1 22 3 26 1 18 -7 -18 -18 -14
-32 5 -17 11 10 14 10 9 2 -4 -7 -2 -13 4 -13 6 0 8 -12 5 -31 -5 -29 -4 -31
17 -26 23 6 23 6 3 -10 -19 -15 -19 -15 9 -10 l30 5 -25 -19 c-22 -17 -22 -18
-3 -13 19 5 21 2 16 -22 -3 -19 -1 -25 7 -20 6 4 11 2 11 -4 0 -6 4 -9 9 -5 5
3 13 0 17 -6 4 -8 3 -9 -4 -5 -7 4 -12 3 -12 -3 0 -5 6 -11 13 -14 9 -3 9 -7
-1 -19 -11 -14 -9 -16 17 -14 24 2 28 -1 19 -11 -7 -9 -7 -13 1 -13 7 0 9 -5
5 -12 -4 -6 -3 -8 2 -5 6 3 16 2 24 -4 12 -7 9 -9 -10 -10 -17 -1 -19 -3 -7
-6 9 -2 17 -11 17 -19 0 -8 6 -14 14 -14 8 0 18 -5 22 -12 5 -7 3 -8 -5 -3
-20 11 4 -28 26 -46 15 -11 14 -9 -2 11 -12 15 -13 20 -4 12 9 -6 18 -10 20
-7 3 2 6 -6 6 -18 1 -12 7 -23 13 -25 5 -2 10 -10 10 -17 0 -7 8 -12 17 -11
10 0 18 -6 19 -14 3 -37 5 -41 16 -34 7 5 9 2 5 -8 -6 -16 10 -38 27 -38 6 0
3 7 -7 14 -10 8 -14 17 -9 20 9 5 24 -17 26 -38 1 -5 7 -11 15 -14 9 -3 11 0
5 9 -7 12 -5 12 9 0 18 -15 23 -26 7 -16 -6 3 -10 1 -10 -4 0 -6 5 -11 10 -11
6 0 10 -7 10 -16 0 -8 4 -13 8 -10 15 9 52 -23 45 -39 -4 -11 -1 -13 13 -8 17
6 18 5 4 -12 -14 -17 -14 -18 10 -5 24 13 24 12 10 -5 -14 -17 -13 -18 3 -12
9 3 17 2 17 -3 0 -6 5 -10 11 -10 5 0 7 5 3 12 -4 6 -3 8 4 5 11 -7 11 -25 0
-43 -4 -6 3 -11 15 -11 18 -1 37 -5 65 -12 1 -1 -2 -9 -7 -19 -8 -15 -5 -18
17 -17 18 0 26 -5 24 -14 -4 -22 18 -41 49 -41 16 0 29 -5 29 -11 0 -5 -4 -8
-9 -4 -5 3 -12 1 -15 -4 -3 -4 4 -8 17 -7 13 1 22 -5 22 -13 0 -8 8 -15 18
-17 9 -1 15 2 11 7 -3 5 0 9 7 9 7 0 9 -8 6 -21 -4 -16 -3 -18 9 -8 11 9 14 7
14 -10 0 -12 4 -20 9 -17 13 8 42 -4 36 -14 -3 -5 -1 -11 4 -14 5 -4 13 -1 17
5 5 8 3 9 -6 4 -9 -5 -11 -4 -6 3 12 20 28 13 21 -8 -5 -16 -3 -19 11 -13 12
4 15 3 10 -5 -4 -7 -2 -12 4 -12 6 0 8 -4 5 -10 -3 -6 1 -7 10 -3 13 4 14 7 3
14 -9 6 -6 8 9 6 12 0 19 -5 17 -9 -3 -4 1 -8 8 -8 9 0 9 -3 -2 -10 -13 -8
-12 -10 3 -10 9 0 17 5 17 12 0 6 3 9 6 6 3 -4 1 -15 -4 -25 -9 -16 -6 -18 32
-15 31 3 46 -1 57 -14 13 -16 12 -16 -8 -6 -34 18 -41 14 -10 -6 15 -10 25
-21 23 -23 -3 -3 4 -5 14 -6 11 -1 20 3 20 8 0 6 -5 7 -12 3 -7 -5 -8 -3 -4 5
6 9 12 8 26 -4 10 -9 26 -15 37 -13 10 2 17 -2 16 -10 -2 -6 2 -12 8 -12 5 0
7 -5 3 -11 -4 -7 -1 -10 7 -7 8 3 22 -1 31 -9 10 -9 22 -12 30 -7 19 12 39 14
32 3 -3 -5 -10 -7 -15 -4 -5 3 -6 -1 -3 -10 6 -14 9 -14 27 2 11 10 17 12 13
5 -5 -9 -1 -15 13 -19 12 -3 18 -10 14 -17 -4 -6 2 -4 12 4 11 9 16 10 11 3
-4 -8 -1 -13 9 -13 9 0 13 5 10 10 -4 6 4 5 19 -1 14 -7 23 -16 20 -20 -3 -5
0 -9 6 -9 6 0 8 -4 5 -10 -3 -6 1 -7 10 -4 13 5 13 9 3 23 -12 14 -11 14 4 2
10 -7 15 -17 12 -22 -3 -5 2 -9 10 -9 9 0 16 6 16 13 0 8 3 7 9 -3 6 -8 7 -18
4 -23 -3 -5 4 -4 15 2 25 13 35 14 28 2 -7 -10 13 -9 29 1 6 4 22 -3 35 -14
14 -11 19 -16 11 -12 -9 4 -12 3 -7 -4 7 -11 36 -9 59 4 7 5 7 1 -2 -10 -12
-15 -12 -17 0 -14 8 2 17 8 21 13 5 6 8 5 8 -2 0 -7 5 -13 11 -13 5 0 8 3 6 8
-3 4 8 7 23 7 16 1 27 -2 24 -6 -2 -4 3 -10 12 -13 8 -3 12 -2 9 3 -3 5 -1 12
5 16 6 4 10 -4 10 -19 0 -14 5 -28 10 -31 6 -3 10 -1 10 4 0 8 6 7 19 -1 15
-9 23 -9 37 3 11 9 15 9 10 1 -11 -18 704 -18 723 1 11 9 13 9 7 0 -5 -9 3
-13 28 -13 29 0 34 3 29 18 -5 14 -3 13 10 -3 16 -20 16 -20 17 3 0 21 1 22
16 8 19 -20 21 -20 21 -1 0 8 -4 12 -9 9 -4 -3 -8 -1 -8 5 0 18 18 21 25 3 7
-16 8 -15 15 3 5 11 9 14 9 6 1 -11 4 -11 18 0 15 12 16 12 8 -1 -8 -13 -7
-13 8 -1 10 8 17 9 17 3 0 -11 38 -10 57 1 6 4 18 4 26 1 8 -3 18 0 23 7 4 7
3 10 -4 5 -6 -3 -14 -2 -17 4 -4 6 -3 10 2 9 4 -1 11 0 16 1 15 5 27 8 45 9
15 1 15 3 2 11 -9 6 -10 10 -3 10 7 0 17 -8 22 -17 10 -17 10 -17 11 0 0 12 4
16 13 10 18 -11 57 -11 64 0 3 6 1 7 -5 3 -8 -5 -10 -2 -6 9 6 14 8 14 20 -2
13 -17 13 -17 14 1 0 16 2 17 17 5 16 -12 15 -10 -1 16 l-19 30 23 -20 c23
-19 23 -19 16 -1 -7 20 -6 20 14 1 20 -19 21 -19 14 1 -4 10 -4 16 1 12 4 -4
15 -2 24 5 14 11 15 10 1 -7 -14 -18 -13 -19 3 -13 10 4 21 7 23 7 3 0 2 6 -2
12 -5 8 0 7 11 -2 15 -12 17 -12 10 -1 -6 11 -4 13 10 7 16 -6 16 -4 4 10 -13
16 -12 16 9 5 12 -6 22 -8 21 -4 -1 4 -1 14 0 22 1 11 4 11 18 0 9 -8 14 -9
10 -3 -7 12 21 29 31 19 3 -3 0 -5 -7 -5 -7 0 -9 -5 -5 -11 5 -8 10 -6 16 5 5
9 14 13 20 10 6 -4 8 -2 4 4 -3 6 3 13 14 17 11 4 18 11 14 16 -7 13 19 7 28
-6 5 -6 8 -5 8 3 0 6 10 12 21 12 19 0 20 2 8 17 -13 15 -12 15 11 3 24 -13
24 -12 10 5 -9 11 -10 16 -2 11 7 -4 12 -2 13 6 0 7 4 4 9 -7 8 -18 9 -18 9
-2 1 14 5 16 21 7 16 -8 18 -8 14 4 -3 8 0 17 5 21 6 3 8 11 5 17 -4 7 -2 8 5
4 9 -6 9 -11 1 -21 -8 -9 -8 -15 0 -20 6 -4 10 -3 9 2 -3 17 14 52 22 47 5 -3
6 -11 2 -17 -4 -7 0 -7 10 1 9 8 21 11 26 7 6 -3 8 0 5 8 -3 8 0 18 7 23 8 4
10 3 5 -4 -4 -7 -2 -12 3 -12 6 0 11 7 11 16 0 10 6 14 15 11 8 -4 17 -1 21 5
4 7 3 8 -4 4 -7 -4 -12 -3 -12 2 0 6 7 13 16 16 22 9 26 8 18 -6 -4 -7 -3 -8
5 -4 6 4 9 10 7 14 -6 10 16 36 33 40 7 1 20 -3 27 -9 12 -10 13 -8 5 14 -7
18 -7 28 1 33 7 4 8 3 4 -4 -4 -7 -2 -12 4 -12 6 0 8 -5 4 -12 -4 -7 -3 -8 5
-4 6 4 9 11 6 16 -3 4 -2 15 1 24 5 13 9 12 24 -7 l19 -22 -6 24 c-5 18 -3 22
7 16 10 -6 12 -4 7 8 -4 10 -2 17 5 17 6 0 17 8 24 18 11 13 13 13 11 2 -2 -8
-2 -12 0 -7 3 4 12 7 21 7 14 0 15 2 3 9 -12 8 -12 12 -2 25 8 9 18 16 24 16
6 0 2 -7 -9 -15 -18 -14 -17 -14 8 -4 21 9 25 15 17 25 -7 8 -6 14 2 20 7 4 9
3 6 -3 -4 -6 -1 -13 7 -16 10 -4 12 0 9 14 -3 11 0 19 6 19 7 0 9 -5 5 -12 -4
-7 -3 -8 4 -4 7 4 12 14 12 21 0 9 6 12 15 9 9 -4 15 0 15 10 0 10 -6 13 -17
9 -10 -3 -16 -4 -13 -2 37 31 53 41 42 28 -12 -16 -7 -29 10 -29 5 0 7 4 3 9
-3 5 2 16 10 24 11 12 12 17 2 21 -6 4 -2 4 10 2 13 -2 26 1 30 6 3 7 1 8 -5
4 -7 -4 -12 -2 -12 3 0 10 13 15 32 13 3 -1 12 5 18 14 11 12 10 13 -2 9 -9
-4 -15 0 -15 8 0 9 9 13 24 11 26 -3 39 11 22 22 -8 5 -9 3 -4 -6 6 -9 4 -11
-4 -5 -9 5 -10 10 -2 18 7 7 15 6 27 -4 16 -13 16 -12 5 9 -8 15 -8 22 -1 22
6 0 8 5 4 12 -4 7 -3 8 4 4 10 -6 16 4 14 25 -1 3 6 6 13 6 11 0 12 -4 4 -14
-7 -8 -8 -13 -1 -13 13 0 24 29 15 43 -4 7 0 8 12 3 15 -5 16 -4 5 9 -7 9 -10
18 -6 22 3 3 6 2 6 -4 0 -5 7 -10 15 -10 11 0 12 4 4 13 -8 10 -6 12 8 9 12
-2 20 2 20 10 0 8 -3 12 -7 10 -4 -2 -7 2 -7 10 0 10 5 11 17 5 14 -7 17 -5
16 12 0 12 6 23 14 25 13 4 13 3 0 -7 -12 -9 -12 -11 -1 -8 8 2 15 12 17 21 1
9 -1 15 -5 12 -4 -2 -8 2 -8 10 0 8 4 12 9 9 4 -3 8 0 8 7 0 8 5 7 17 -2 15
-13 15 -12 4 10 -9 16 -10 21 -1 16 7 -4 10 -2 9 6 -2 8 3 24 10 37 10 20 15
21 29 10 9 -7 14 -9 10 -4 -4 5 -1 15 7 22 8 8 11 22 8 31 -5 11 -3 14 6 8 10
-6 11 -3 2 13 -16 30 -13 39 5 16 14 -17 15 -17 10 -1 -5 15 -2 17 17 12 22
-7 22 -7 2 9 -20 15 -20 15 3 16 21 0 22 1 8 16 -19 18 -11 41 9 24 9 -8 11
-5 7 15 -2 15 0 25 7 25 7 0 10 -4 7 -8 -3 -5 1 -9 9 -9 12 0 12 4 -2 19 -12
13 -13 18 -4 16 7 -2 16 3 19 11 3 9 0 11 -9 6 -11 -6 -12 -5 -2 6 16 16 17
33 1 23 -7 -4 -8 -3 -4 5 4 6 12 9 17 6 10 -7 30 35 22 48 -2 4 3 10 12 13 13
6 14 8 3 15 -10 6 -8 9 7 9 13 0 16 3 8 8 -17 11 -1 33 25 35 16 1 18 4 10 14
-6 7 -7 13 -3 13 4 0 1 7 -6 16 -12 15 -11 16 11 10 18 -5 21 -4 11 3 -8 5
-15 19 -16 30 -1 15 2 18 11 10 9 -8 11 -5 7 10 -3 13 -1 21 8 21 7 0 9 3 6 6
-4 4 -13 1 -22 -6 -13 -11 -14 -10 -9 4 3 9 12 16 20 16 8 0 14 5 14 11 0 5
-5 7 -12 3 -7 -4 -8 -3 -4 5 4 6 17 9 29 6 12 -2 16 -2 9 1 -6 3 -9 11 -6 16
4 6 3 8 -3 5 -5 -3 -10 0 -10 8 0 8 5 12 10 8 5 -3 8 15 6 45 -3 41 -1 48 9
39 18 -14 12 12 -7 32 -11 12 -10 17 5 28 12 9 13 13 4 13 -7 0 -11 3 -7 6 10
10 26 -6 21 -21 -4 -8 -11 -12 -17 -8 -6 4 -7 1 -2 -7 6 -10 11 -10 20 3 7 9
14 14 18 11 7 -7 7 793 0 813 -5 12 -8 11 -18 -7 -8 -15 -15 -19 -19 -11 -4 6
-2 11 3 11 19 0 12 31 -11 52 -13 11 -17 16 -9 12 11 -5 13 -3 8 10 -4 10 -3
15 3 11 6 -3 10 -1 10 4 0 6 -5 11 -12 11 -6 0 -3 7 8 15 18 14 18 14 -3 8
-20 -5 -22 -2 -19 30 2 19 6 39 9 44 3 5 1 15 -5 23 -8 12 -9 12 -4 -2 7 -24
-2 -22 -24 5 -13 16 -15 26 -8 35 7 8 7 12 -2 12 -10 0 -10 3 0 15 9 11 9 15
1 15 -8 0 -9 5 -1 19 7 14 6 21 -3 24 -9 3 -8 8 3 23 14 18 14 18 -3 5 -11 -8
-15 -21 -12 -32 4 -11 3 -19 -2 -19 -5 0 -10 14 -11 32 -3 33 -19 51 -36 41
-5 -3 -6 -1 -2 6 4 6 12 9 17 6 5 -4 9 -2 9 4 0 5 -6 11 -12 14 -10 3 -10 9
-1 25 15 26 -1 41 -37 36 -14 -2 -20 -1 -13 4 15 10 9 48 -7 44 -6 -1 -9 2 -5
8 3 6 10 8 14 6 4 -3 8 2 8 10 0 9 -6 13 -14 9 -11 -4 -13 1 -7 17 6 20 5 21
-10 9 -9 -8 -19 -11 -23 -7 -3 3 -2 6 4 6 6 0 9 15 8 33 -2 25 -7 31 -21 29
-16 -3 -16 -2 -3 14 8 11 9 15 2 10 -8 -4 -13 -2 -13 4 0 6 -4 8 -10 5 -5 -3
-10 -1 -10 5 0 6 -5 8 -12 4 -7 -4 -8 -3 -4 5 4 6 12 9 17 6 5 -3 6 1 3 9 -3
9 -10 13 -15 10 -5 -3 -9 2 -9 11 0 10 5 14 13 10 6 -4 4 0 -5 8 -10 8 -15 17
-11 20 3 4 -4 7 -16 7 -18 0 -22 4 -18 20 3 13 0 20 -9 20 -8 0 -14 5 -14 11
0 5 5 7 12 3 7 -4 8 -3 4 5 -4 6 -11 9 -16 6 -13 -8 -37 5 -37 21 0 9 6 13 15
9 13 -5 13 -3 1 11 -8 10 -13 20 -11 23 2 3 -1 7 -7 9 -6 2 -11 -1 -11 -8 0
-6 5 -8 12 -4 7 4 8 3 4 -5 -9 -14 -26 -5 -26 14 0 7 -7 16 -15 19 -13 5 -14
10 -4 28 11 20 10 21 -3 10 -13 -10 -17 -10 -22 3 -3 9 -10 14 -15 11 -5 -3
-7 4 -4 16 4 19 3 20 -7 8 -10 -12 -11 -11 -7 8 4 18 3 21 -7 12 -10 -7 -17
-6 -25 4 -8 10 -9 16 -1 21 5 3 10 12 10 18 0 7 -4 6 -10 -3 -6 -10 -10 -11
-10 -2 0 6 -6 12 -14 12 -8 0 -18 5 -22 11 -4 8 1 9 17 5 21 -6 21 -5 6 4 -9
6 -15 16 -11 21 3 5 2 8 -3 7 -14 -4 -53 13 -53 23 0 6 4 8 8 5 5 -3 9 2 9 10
0 9 -4 11 -10 5 -5 -5 -16 -7 -23 -4 -10 4 -12 0 -8 -13 5 -16 4 -16 -5 -4 -6
9 -7 18 -1 24 17 17 11 28 -10 21 -12 -4 -20 -2 -20 5 0 6 4 9 9 5 5 -3 12 -2
15 3 2 4 -5 9 -16 9 -29 3 -33 10 -17 30 8 9 9 14 2 10 -7 -4 -18 2 -27 15 -9
12 -16 18 -16 12 0 -5 6 -16 13 -23 10 -11 9 -12 -3 -5 -8 5 -18 9 -22 9 -3 0
-10 4 -15 9 -5 5 -3 6 5 2 6 -4 12 -2 12 5 0 7 -8 9 -21 6 -17 -4 -18 -3 -8 9
9 12 9 13 -2 9 -8 -3 -27 7 -44 21 -16 14 -24 23 -17 19 6 -3 12 -1 12 4 0 10
-13 14 -25 9 -3 -2 -14 12 -25 30 -13 21 -26 32 -35 28 -8 -3 -17 -1 -20 5 -4
5 -11 6 -17 3 -7 -4 -8 -2 -4 5 6 9 11 9 21 1 10 -8 15 -8 21 1 4 7 3 9 -4 5
-6 -3 -13 -2 -17 3 -3 6 -12 8 -20 4 -11 -3 -15 2 -15 18 l-1 24 -15 -25 c-8
-14 -13 -17 -10 -7 3 9 3 24 -1 33 -5 13 -7 13 -14 2 -7 -10 -12 -8 -24 10 -9
12 -23 22 -31 22 -9 0 -12 5 -8 13 6 10 4 10 -7 0 -17 -17 -34 -17 -20 0 17
21 -6 39 -33 25 -18 -10 -19 -9 -9 4 16 18 5 32 -14 17 -7 -6 -13 -7 -13 -3 0
5 -10 15 -22 23 l-23 14 20 -24 c15 -18 11 -16 -16 6 -20 17 -34 34 -31 39 3
5 -1 5 -9 0 -22 -14 -36 -13 -36 2 0 11 3 11 16 1 14 -10 14 -10 3 5 -8 9 -19
15 -26 12 -6 -2 -20 3 -31 12 -11 8 -13 12 -5 8 8 -4 12 -3 7 1 -4 5 -18 10
-30 12 -17 2 -19 1 -7 -7 12 -7 10 -9 -7 -7 -12 0 -20 3 -18 5 2 3 0 13 -6 24
-9 16 -13 17 -27 6 -13 -11 -15 -11 -10 3 5 14 0 16 -30 15 -38 -2 -62 8 -62
27 0 6 7 2 16 -9 15 -18 15 -18 2 5 -8 13 -22 25 -31 27 -9 1 -15 -1 -12 -6
11 -17 -26 -3 -39 16 -8 10 -18 16 -22 11 -4 -4 -2 -7 4 -7 7 0 12 -4 12 -8 0
-4 -9 -8 -20 -8 -11 0 -20 4 -20 9 0 4 -4 6 -9 3 -5 -3 -15 2 -22 12 -13 15
-12 16 3 4 11 -9 18 -10 23 -2 4 6 1 9 -7 8 -7 -2 -12 2 -11 9 2 8 -6 9 -27 3
-30 -9 -58 8 -42 25 4 5 1 5 -6 1 -7 -4 -9 -12 -6 -18 5 -7 2 -8 -7 -2 -20 12
-40 14 -33 3 3 -5 10 -6 16 -3 7 5 8 2 3 -6 -6 -10 -12 -8 -27 9 -15 20 -19
21 -24 7 -5 -14 -11 -11 -30 16 -13 17 -24 25 -24 17 0 -11 -2 -11 -9 -1 -10
16 -61 24 -61 9 0 -5 -8 -3 -17 4 -14 12 -16 12 -8 0 6 -11 4 -13 -9 -8 -10 4
-20 7 -22 7 -3 0 -3 4 0 8 6 11 -25 9 -42 -2 -22 -13 -27 3 -6 18 10 8 16 18
11 22 -4 4 -7 2 -7 -4 0 -7 -5 -12 -11 -12 -5 0 -8 4 -5 9 4 6 -175 9 -449 10
-278 0 -457 -4 -460 -10z m25 -11 c0 17 17 15 24 -4 3 -9 2 -12 -5 -9 -6 4
-17 -1 -25 -11 -13 -18 -14 -18 -7 1 6 18 5 18 -10 6 -20 -16 -23 -6 -4 13 9
10 14 11 19 2 6 -8 8 -8 8 2z m834 4 c3 -5 -1 -9 -9 -9 -8 0 -12 4 -9 9 3 4 7
8 9 8 2 0 6 -4 9 -8z m41 -2 c3 -5 -1 -10 -10 -10 -9 0 -13 5 -10 10 3 6 8 10
10 10 2 0 7 -4 10 -10z m-1272 -115 c-3 -9 -8 -14 -10 -11 -3 3 -2 9 2 15 9
16 15 13 8 -4z m-248 -85 c-3 -5 -12 -10 -18 -10 -7 0 -6 4 3 10 19 12 23 12
15 0z m-95 -39 c0 -5 -7 -12 -16 -15 -14 -5 -15 -4 -4 9 14 17 20 19 20 6z
m2564 -119 c3 -5 -1 -9 -9 -9 -8 0 -12 4 -9 9 3 4 7 8 9 8 2 0 6 -4 9 -8z m66
-56 c0 -3 -4 -8 -10 -11 -5 -3 -10 -1 -10 4 0 6 5 11 10 11 6 0 10 -2 10 -4z
m-3013 -71 c0 -8 -4 -12 -9 -9 -5 3 -6 10 -3 15 9 13 12 11 12 -6z m3161 -40
c-3 -3 -9 2 -12 12 -6 14 -5 15 5 6 7 -7 10 -15 7 -18z m-3799 -698 c0 -9 -2
-8 -6 1 -2 6 -10 9 -15 6 -7 -4 -8 -2 -4 5 9 13 26 5 25 -12z m4444 -52 c-3
-9 -8 -14 -10 -11 -3 3 -2 9 2 15 9 16 15 13 8 -4z m92 -165 c3 -5 -1 -10 -10
-10 -9 0 -13 5 -10 10 3 6 8 10 10 10 2 0 7 -4 10 -10z m60 -260 c3 -5 1 -10
-4 -10 -6 0 -11 5 -11 10 0 6 2 10 4 10 3 0 8 -4 11 -10z m85 -240 c0 -5 -5
-10 -11 -10 -5 0 -7 5 -4 10 3 6 8 10 11 10 2 0 4 -4 4 -10z m-4940 -20 c0 -5
-5 -10 -11 -10 -5 0 -7 5 -4 10 3 6 8 10 11 10 2 0 4 -4 4 -10z m4923 -707
c-3 -7 -6 -13 -8 -13 -2 0 -5 6 -8 13 -3 8 1 14 8 14 7 0 11 -6 8 -14z m-4913
-73 c0 -5 -5 -10 -11 -10 -5 0 -7 5 -4 10 3 6 8 10 11 10 2 0 4 -4 4 -10z
m4825 -318 c-3 -3 -11 0 -18 7 -9 10 -8 11 6 5 10 -3 15 -9 12 -12z m-190
-383 c-4 -5 -12 -9 -18 -8 -9 0 -8 2 1 6 6 2 9 10 6 15 -4 7 -2 8 5 4 6 -4 9
-12 6 -17z m-3768 -665 c-3 -3 -12 -4 -19 -1 -8 3 -5 6 6 6 11 1 17 -2 13 -5z
m2680 -280 c-3 -3 -12 -4 -19 -1 -8 3 -5 6 6 6 11 1 17 -2 13 -5z m-2127 -34
c-12 -8 -12 -10 -1 -10 8 0 12 -3 8 -6 -9 -9 -28 6 -22 17 4 5 12 9 18 9 7 0
6 -4 -3 -10z m618 -168 c15 11 15 11 5 -3 -7 -9 -10 -18 -7 -22 5 -5 -21 -2
-36 3 -3 1 -8 2 -12 1 -5 0 -8 4 -8 10 0 6 7 9 15 5 8 -3 15 0 16 7 0 9 2 8 6
-1 4 -10 8 -10 21 0z m43 -25 c-10 -9 -11 -8 -5 6 3 10 9 15 12 12 3 -3 0 -11
-7 -18z"/>
<path d="M3157 4770 c6 -23 33 -49 33 -31 0 6 -4 11 -10 11 -5 0 -10 6 -10 14
0 8 -4 17 -9 20 -5 4 -7 -3 -4 -14z"/>
<path d="M3777 4519 c7 -7 15 -10 18 -7 3 3 -2 9 -12 12 -14 6 -15 5 -6 -5z"/>
<path d="M4172 4226 c2 -1 10 -7 19 -14 13 -10 18 -10 22 0 3 8 -5 14 -20 14
-13 1 -23 1 -21 0z"/>
<path d="M180 3399 c0 -5 5 -7 10 -4 6 3 10 8 10 11 0 2 -4 4 -10 4 -5 0 -10
-5 -10 -11z"/>
<path d="M140 3339 c0 -5 5 -7 10 -4 6 3 10 8 10 11 0 2 -4 4 -10 4 -5 0 -10
-5 -10 -11z"/>
<path d="M4906 3128 c3 -5 10 -6 15 -3 13 9 11 12 -6 12 -8 0 -12 -4 -9 -9z"/>
<path d="M4944 3045 c0 -13 3 -22 7 -19 8 4 6 30 -2 38 -3 3 -5 -5 -5 -19z"/>
<path d="M20 2889 c0 -5 5 -7 10 -4 6 3 10 8 10 11 0 2 -4 4 -10 4 -5 0 -10
-5 -10 -11z"/>
<path d="M4844 1646 c1 -8 5 -18 8 -22 4 -3 5 1 4 10 -1 8 -5 18 -8 22 -4 3
-5 -1 -4 -10z"/>
<path d="M235 1471 c-3 -5 -2 -12 3 -15 5 -3 9 1 9 9 0 17 -3 19 -12 6z"/>
<path d="M4654 1312 c-12 -19 -8 -42 8 -42 7 0 7 4 -1 13 -8 10 -7 17 1 25 6
6 10 14 7 16 -3 3 -9 -3 -15 -12z"/>
<path d="M525 1049 c-4 -6 -5 -12 -2 -15 2 -3 7 2 10 11 7 17 1 20 -8 4z"/>
<path d="M4450 1019 c0 -5 5 -7 10 -4 6 3 10 8 10 11 0 2 -4 4 -10 4 -5 0 -10
-5 -10 -11z"/>
<path d="M660 882 c0 -5 7 -9 15 -9 8 0 15 4 15 9 0 4 -7 8 -15 8 -8 0 -15 -4
-15 -8z"/>
<path d="M826 748 c3 -5 10 -6 15 -3 13 9 11 12 -6 12 -8 0 -12 -4 -9 -9z"/>
<path d="M870 709 c0 -5 5 -7 10 -4 6 3 10 8 10 11 0 2 -4 4 -10 4 -5 0 -10
-5 -10 -11z"/>
<path d="M1530 331 c0 -5 5 -13 10 -16 6 -3 10 -2 10 4 0 5 -4 13 -10 16 -5 3
-10 2 -10 -4z"/>
<path d="M1815 240 c2 -27 10 -33 12 -10 1 11 -2 22 -6 24 -4 3 -7 -4 -6 -14z"/>
<path d="M3166 238 c3 -4 9 -8 15 -8 5 0 9 4 9 8 0 5 -7 9 -15 9 -8 0 -12 -4
-9 -9z"/>
</g>
</svg>
